<svg xmlns="http://www.w3.org/2000/svg" viewBox="0 0 103.47 102.95"><defs><style>.cls-1{isolation:isolate;}.cls-2{fill:#c8e3ed;stroke:#1b8ece;stroke-miterlimit:10;}.cls-2,.cls-3{mix-blend-mode:multiply;}.cls-4{fill:#c8e2ec;}.cls-5{fill:#178ece;}</style></defs><title>ideation-communicate</title><g class="cls-1"><g id="Layer_1" data-name="Layer 1"><polygon class="cls-2" points="3.88 99.57 3.88 34.93 35.62 3.18 100.64 3.18 100.64 71.09 67.63 100.63 3.88 99.57"/><g class="cls-3"><polygon class="cls-4" points="38.03 67.41 37.74 8.41 96.93 67.43 38.03 67.41"/><path class="cls-5" d="M38,9,96.33,67.18l-58,0L38,9M37.49,7.8l.3,59.86,59.75,0L37.49,7.8Z"/></g><g class="cls-3"><polygon class="cls-4" points="38.64 7.04 97.54 6.88 98 65.88 38.64 7.04"/><path class="cls-5" d="M97.29,7.13l.46,58.15-58.5-58,58-.16m.5-.5L38,6.79l60.22,59.7L97.79,6.63Z"/></g><g class="cls-3"><polygon class="cls-4" points="7.81 68.69 64.79 68.7 36.34 97.55 7.81 68.69"/><path class="cls-5" d="M8.41,68.94H64.19L36.35,97.2,8.41,68.94m-1.2-.5L36.35,97.91l29-29.46Z"/></g><g class="cls-3"><polygon class="cls-4" points="6.68 98.25 6.88 69.18 35.7 98.61 6.68 98.25"/><path class="cls-5" d="M7.12,69.79l28,28.56L6.93,98l.19-28.22m-.49-1.22L6.43,98.5l29.87.36L6.63,68.57Z"/></g><g class="cls-3"><polygon class="cls-4" points="35.48 7.84 35.55 36.86 6.48 37.08 35.48 7.84"/><path class="cls-5" d="M35.23,8.44l.07,28.17-28.22.22L35.23,8.44m.5-1.21L5.88,37.34l29.92-.23L35.73,7.23Z"/></g><g class="cls-3"><polygon class="cls-4" points="6.41 38.23 35.99 37.99 36.05 66.57 6.64 66.64 6.41 38.23"/><path class="cls-5" d="M35.74,38.25l.06,28.07-28.92.07L6.66,38.48l29.08-.23m.5-.51L6.15,38l.24,28.91,29.91-.07-.06-29.08Z"/></g><g class="cls-3"><polygon class="cls-4" points="38.22 97.52 67.12 68.59 96.8 69.04 66.88 97.76 38.22 97.52"/><path class="cls-5" d="M67.22,68.84l29,.44L66.78,97.51l-28-.23,28.4-28.44m-.21-.5L37.62,97.77,67,98,97.41,68.8,67,68.34Z"/></g></g></g></svg>