<svg xmlns="http://www.w3.org/2000/svg" viewBox="0 0 77.08 166.88"><defs><style>.cls-1{isolation:isolate;}.cls-2,.cls-4{fill:#c8e2ec;}.cls-2{stroke:#178ece;stroke-miterlimit:10;stroke-width:0.5px;}.cls-2,.cls-3{mix-blend-mode:multiply;}.cls-5{fill:#178ece;}</style></defs><title>ideation-explore</title><g class="cls-1"><g id="Layer_1" data-name="Layer 1"><polygon class="cls-2" points="68.46 163.85 4.22 160.43 9.25 2.58 71.99 68.69 68.46 163.85"/><g class="cls-3"><polygon class="cls-4" points="6.02 157.96 8.12 99 64.87 160.36 6.02 157.96"/><path class="cls-5" d="M8.35,99.61l55.92,60.48-58-2.37L8.35,99.61m-.46-1.23L5.76,158.2l59.7,2.44L7.89,98.38Z"/></g><polygon class="cls-2" points="11.17 6.17 69.22 67.98 9.5 66 11.17 6.17"/><g class="cls-3"><polygon class="cls-4" points="11.14 67.66 68.1 69.36 38.8 97.35 11.14 67.66"/><path class="cls-5" d="M11.73,67.92l55.76,1.67L38.81,97,11.73,67.92m-1.18-.53L38.79,97.71,68.7,69.13,10.55,67.39Z"/></g><g class="cls-3"><polygon class="cls-4" points="38.55 129.82 67.55 130.97 66.56 160.02 38.55 129.82"/><path class="cls-5" d="M39.15,130.1l28.14,1.11-1,28.2L39.15,130.1M38,129.55l28.83,31.09,1-29.91L38,129.55Z"/></g><g class="cls-3"><polygon class="cls-4" points="39.71 98.02 69.79 69.88 68.77 98.89 39.71 98.02"/><path class="cls-5" d="M69.52,70.48l-1,28.15-28.2-.84L69.52,70.48m.54-1.2-31,29L69,99.14l1-29.86Z"/></g><g class="cls-3"><polygon class="cls-4" points="38.21 127.96 39.05 99.4 68.45 100.25 67.79 128.65 38.21 127.96"/><path class="cls-5" d="M39.29,99.66l28.9.84-.65,27.9-29.07-.68.82-28.06m-.49-.52L38,128.21l30.07.7L68.7,100l-29.9-.87Z"/></g><g class="cls-3"><polygon class="cls-4" points="8.54 96.67 9.23 68.02 37.7 97.36 36.79 127.03 8.54 96.67"/><path class="cls-5" d="M9.46,68.62l28,28.84-.89,29L8.8,96.57l.66-27.95M9,67.42l-.7,29.34L37,127.65,38,97.26,9,67.42Z"/></g></g></g></svg>